<?xml version="1.0" ?>
<svg xmlns="http://www.w3.org/2000/svg" width="400" height="400" viewBox="0 0 400 400">
  <rect x="0" y="0" width="400" height="400" fill="#020617" rx="12"/>
  <line x1="20.5" y1="0" x2="20.5" y2="400" stroke="rgba(255,255,255,0.06)" stroke-width="1"/>
  <line x1="0" y1="20.5" x2="400" y2="20.5" stroke="rgba(255,255,255,0.06)" stroke-width="1"/>
  <line x1="40.5" y1="0" x2="40.5" y2="400" stroke="rgba(255,255,255,0.06)" stroke-width="1"/>
  <line x1="0" y1="40.5" x2="400" y2="40.5" stroke="rgba(255,255,255,0.06)" stroke-width="1"/>
  <line x1="60.5" y1="0" x2="60.5" y2="400" stroke="rgba(255,255,255,0.06)" stroke-width="1"/>
  <line x1="0" y1="60.5" x2="400" y2="60.5" stroke="rgba(255,255,255,0.06)" stroke-width="1"/>
  <line x1="80.5" y1="0" x2="80.5" y2="400" stroke="rgba(255,255,255,0.06)" stroke-width="1"/>
  <line x1="0" y1="80.5" x2="400" y2="80.5" stroke="rgba(255,255,255,0.06)" stroke-width="1"/>
  <line x1="100.5" y1="0" x2="100.5" y2="400" stroke="rgba(255,255,255,0.06)" stroke-width="1"/>
  <line x1="0" y1="100.5" x2="400" y2="100.5" stroke="rgba(255,255,255,0.06)" stroke-width="1"/>
  <line x1="120.5" y1="0" x2="120.5" y2="400" stroke="rgba(255,255,255,0.06)" stroke-width="1"/>
  <line x1="0" y1="120.5" x2="400" y2="120.5" stroke="rgba(255,255,255,0.06)" stroke-width="1"/>
  <line x1="140.5" y1="0" x2="140.5" y2="400" stroke="rgba(255,255,255,0.06)" stroke-width="1"/>
  <line x1="0" y1="140.5" x2="400" y2="140.5" stroke="rgba(255,255,255,0.06)" stroke-width="1"/>
  <line x1="160.5" y1="0" x2="160.5" y2="400" stroke="rgba(255,255,255,0.06)" stroke-width="1"/>
  <line x1="0" y1="160.5" x2="400" y2="160.5" stroke="rgba(255,255,255,0.06)" stroke-width="1"/>
  <line x1="180.5" y1="0" x2="180.5" y2="400" stroke="rgba(255,255,255,0.06)" stroke-width="1"/>
  <line x1="0" y1="180.5" x2="400" y2="180.5" stroke="rgba(255,255,255,0.06)" stroke-width="1"/>
  <line x1="200.5" y1="0" x2="200.5" y2="400" stroke="rgba(255,255,255,0.06)" stroke-width="1"/>
  <line x1="0" y1="200.5" x2="400" y2="200.5" stroke="rgba(255,255,255,0.06)" stroke-width="1"/>
  <line x1="220.5" y1="0" x2="220.5" y2="400" stroke="rgba(255,255,255,0.06)" stroke-width="1"/>
  <line x1="0" y1="220.5" x2="400" y2="220.5" stroke="rgba(255,255,255,0.06)" stroke-width="1"/>
  <line x1="240.5" y1="0" x2="240.5" y2="400" stroke="rgba(255,255,255,0.06)" stroke-width="1"/>
  <line x1="0" y1="240.5" x2="400" y2="240.5" stroke="rgba(255,255,255,0.06)" stroke-width="1"/>
  <line x1="260.5" y1="0" x2="260.5" y2="400" stroke="rgba(255,255,255,0.06)" stroke-width="1"/>
  <line x1="0" y1="260.5" x2="400" y2="260.5" stroke="rgba(255,255,255,0.06)" stroke-width="1"/>
  <line x1="280.5" y1="0" x2="280.5" y2="400" stroke="rgba(255,255,255,0.06)" stroke-width="1"/>
  <line x1="0" y1="280.5" x2="400" y2="280.5" stroke="rgba(255,255,255,0.06)" stroke-width="1"/>
  <line x1="300.5" y1="0" x2="300.5" y2="400" stroke="rgba(255,255,255,0.06)" stroke-width="1"/>
  <line x1="0" y1="300.5" x2="400" y2="300.5" stroke="rgba(255,255,255,0.06)" stroke-width="1"/>
  <line x1="320.5" y1="0" x2="320.5" y2="400" stroke="rgba(255,255,255,0.06)" stroke-width="1"/>
  <line x1="0" y1="320.5" x2="400" y2="320.5" stroke="rgba(255,255,255,0.06)" stroke-width="1"/>
  <line x1="340.5" y1="0" x2="340.5" y2="400" stroke="rgba(255,255,255,0.06)" stroke-width="1"/>
  <line x1="0" y1="340.5" x2="400" y2="340.5" stroke="rgba(255,255,255,0.06)" stroke-width="1"/>
  <line x1="360.5" y1="0" x2="360.5" y2="400" stroke="rgba(255,255,255,0.06)" stroke-width="1"/>
  <line x1="0" y1="360.5" x2="400" y2="360.5" stroke="rgba(255,255,255,0.06)" stroke-width="1"/>
  <line x1="380.5" y1="0" x2="380.5" y2="400" stroke="rgba(255,255,255,0.06)" stroke-width="1"/>
  <line x1="0" y1="380.5" x2="400" y2="380.5" stroke="rgba(255,255,255,0.06)" stroke-width="1"/>
  <circle cx="90.0" cy="70.0" r="8.0" fill="#ef4444"/>
  <circle cx="350.0" cy="130.0" r="8.0" fill="#ef4444"/>
  <circle cx="110.0" cy="330.0" r="8.0" fill="#ef4444"/>
  <circle cx="330.0" cy="350.0" r="8.0" fill="#ef4444"/>
  <rect x="281" y="201" width="18" height="18" rx="4" fill="#4ade80"/>
  <rect x="261" y="201" width="18" height="18" rx="4" fill="#22c55e"/>
  <rect x="241" y="201" width="18" height="18" rx="4" fill="#22c55e"/>
  <rect x="221" y="201" width="18" height="18" rx="4" fill="#22c55e"/>
  <rect x="201" y="201" width="18" height="18" rx="4" fill="#22c55e"/>
  <rect x="181" y="201" width="18" height="18" rx="4" fill="#22c55e"/>
  <rect x="181" y="221" width="18" height="18" rx="4" fill="#22c55e"/>
  <rect x="181" y="241" width="18" height="18" rx="4" fill="#22c55e"/>
  <rect x="201" y="241" width="18" height="18" rx="4" fill="#22c55e"/>
  <rect x="221" y="241" width="18" height="18" rx="4" fill="#22c55e"/>
  <rect x="241" y="241" width="18" height="18" rx="4" fill="#22c55e"/>
  <rect x="261" y="241" width="18" height="18" rx="4" fill="#22c55e"/>
  <rect x="281" y="241" width="18" height="18" rx="4" fill="#22c55e"/>
  <rect x="301" y="241" width="18" height="18" rx="4" fill="#22c55e"/>
  <rect x="301" y="221" width="18" height="18" rx="4" fill="#22c55e"/>
  <rect x="301" y="201" width="18" height="18" rx="4" fill="#22c55e"/>
</svg>
